<?xml version="1.0" encoding="UTF-8" standalone="no"?>
<!-- Created with Inkscape (http://www.inkscape.org/) -->

<svg
   width="7.4673982in"
   height="7.2674994in"
   viewBox="0 0 716.87024 697.67994"
   version="1.1"
   id="svg5"
   inkscape:version="1.2.1 (9c6d41e, 2022-07-14)"
   sodipodi:docname="overview_figure_v4_funnel_only.svg"
   inkscape:export-filename="overview_figure_v4.png"
   inkscape:export-xdpi="200"
   inkscape:export-ydpi="200"
   xml:space="preserve"
   xmlns:inkscape="http://www.inkscape.org/namespaces/inkscape"
   xmlns:sodipodi="http://sodipodi.sourceforge.net/DTD/sodipodi-0.dtd"
   xmlns:xlink="http://www.w3.org/1999/xlink"
   xmlns="http://www.w3.org/2000/svg"
   xmlns:svg="http://www.w3.org/2000/svg"><sodipodi:namedview
     id="namedview7"
     pagecolor="#ffffff"
     bordercolor="#666666"
     borderopacity="1.0"
     inkscape:showpageshadow="2"
     inkscape:pageopacity="1"
     inkscape:pagecheckerboard="false"
     inkscape:deskcolor="#d1d1d1"
     inkscape:document-units="in"
     showgrid="false"
     inkscape:zoom="0.2479766"
     inkscape:cx="453.67184"
     inkscape:cy="286.31734"
     inkscape:window-width="1512"
     inkscape:window-height="916"
     inkscape:window-x="0"
     inkscape:window-y="38"
     inkscape:window-maximized="1"
     inkscape:current-layer="layer1" /><defs
     id="defs2"><style
       type="text/css"
       id="style4240">*{stroke-linecap:butt;stroke-linejoin:round;}</style><marker
       style="overflow:visible"
       id="marker8921"
       refX="0"
       refY="0"
       orient="auto"
       inkscape:stockid="EmptyTriangleOutL"
       inkscape:isstock="true"><path
         transform="matrix(0.8,0,0,0.8,-4.8,0)"
         style="fill:#ffffff;fill-rule:evenodd;stroke:#0000ff;stroke-width:1pt;stroke-opacity:1"
         d="M 5.77,0 -2.88,5 V -5 Z"
         id="path8919" /></marker><marker
       style="overflow:visible"
       id="EmptyTriangleInL"
       refX="0"
       refY="0"
       orient="auto"
       inkscape:stockid="EmptyTriangleInL"
       inkscape:isstock="true"><path
         transform="matrix(-0.8,0,0,-0.8,4.8,0)"
         style="fill:#ffffff;fill-rule:evenodd;stroke:#000000;stroke-width:1pt;stroke-opacity:1"
         d="M 5.77,0 -2.88,5 V -5 Z"
         id="path2473" /></marker><marker
       style="overflow:visible"
       id="EmptyTriangleOutL"
       refX="0"
       refY="0"
       orient="auto"
       inkscape:stockid="EmptyTriangleOutL"
       inkscape:isstock="true"><path
         transform="matrix(0.8,0,0,0.8,-4.8,0)"
         style="fill:#ffffff;fill-rule:evenodd;stroke:#000000;stroke-width:1pt;stroke-opacity:1"
         d="M 5.77,0 -2.88,5 V -5 Z"
         id="path2482" /></marker><path
       d="m 0,-3 -0.673542,2.072949 H -2.85317 L -1.089814,0.354102 -1.763356,2.427051 0,1.145898 1.763356,2.427051 1.089814,0.354102 2.85317,-0.927051 H 0.673542 Z"
       id="m7e7c8c62ab"
       style="stroke:#1f77b4;stroke-opacity:0.3" /><path
       d="M 0,3 C 0.795609,3 1.55874,2.683901 2.12132,2.12132 2.683901,1.55874 3,0.795609 3,0 3,-0.795609 2.683901,-1.55874 2.12132,-2.12132 1.55874,-2.683901 0.795609,-3 0,-3 -0.795609,-3 -1.55874,-2.683901 -2.12132,-2.12132 -2.683901,-1.55874 -3,-0.795609 -3,0 -3,0.795609 -2.683901,1.55874 -2.12132,2.12132 -1.55874,2.683901 -0.795609,3 0,3 Z"
       id="mf4e2d08125"
       style="stroke:#ff7f0e;stroke-opacity:0.3" /><path
       d="M 0,0 V -3.5"
       id="m1194c851ac"
       style="stroke:#000000;stroke-width:0.8" /><path
       d="M 0,0 V 3.5"
       id="mf1236b1ee1"
       style="stroke:#000000;stroke-width:0.8" /><path
       d="M 0,0 V -2"
       id="m272fb26860"
       style="stroke:#000000;stroke-width:0.6" /><path
       d="M 0,0 V 2"
       id="ma751010a79"
       style="stroke:#000000;stroke-width:0.6" /><path
       d="M 0,0 H 3.5"
       id="md01c77bc7e"
       style="stroke:#000000;stroke-width:0.8" /><path
       d="M 0,0 H 2"
       id="m9292730990"
       style="stroke:#000000;stroke-width:0.6" /><clipPath
       id="p4e5db223d5"><rect
         height="209.29201"
         width="337.47476"
         x="75.085236"
         y="19.440001"
         id="rect5217" /></clipPath><linearGradient
       inkscape:collect="always"
       id="linearGradient85240"><stop
         style="stop-color:#000000;stop-opacity:1;"
         offset="0"
         id="stop85236" /><stop
         style="stop-color:#000000;stop-opacity:0;"
         offset="1"
         id="stop85238" /></linearGradient><inkscape:path-effect
       effect="copy_rotate"
       starting_point="116.53345,78.10775"
       origin="60.07,69.835888"
       id="path-effect4638"
       is_visible="true"
       copies_to_360="true"
       fuse_paths="false"
       starting_angle="-8.33451"
       rotation_angle="18"
       num_copies="20"
       lpeversion="0"
       method="normal"
       gap="-0.01"
       mirror_copies="false"
       split_items="false"
       lpesatellites=""
       link_styles="false" /><mask
       maskUnits="userSpaceOnUse"
       id="mask4718"><g
         id="g4724"
         style="opacity:1;stroke:#000000;stroke-opacity:1"><circle
           r="56.816147"
           cy="69.839394"
           cx="60.072987"
           id="circle4720"
           style="display:inline;opacity:1;fill:#ffffff;fill-opacity:1;stroke:#000000;stroke-width:0.5;stroke-linecap:butt;stroke-linejoin:miter;stroke-miterlimit:4;stroke-dasharray:none;stroke-dashoffset:0;stroke-opacity:1" /><circle
           r="34.410954"
           cy="69.836418"
           cx="60.098209"
           id="circle4722"
           style="display:inline;opacity:1;fill:#000000;fill-opacity:1;stroke:#000000;stroke-width:0.5;stroke-linecap:butt;stroke-linejoin:miter;stroke-miterlimit:4;stroke-dasharray:none;stroke-dashoffset:0;stroke-opacity:1" /></g></mask><clipPath
       clipPathUnits="userSpaceOnUse"
       id="clipPath5958"><circle
         style="display:inline;opacity:0.363;fill:#000000;fill-opacity:1;stroke:#000000;stroke-width:1.20322;stroke-linecap:butt;stroke-linejoin:miter;stroke-miterlimit:4;stroke-dasharray:none;stroke-dashoffset:0;stroke-opacity:1"
         id="circle5960"
         cx="-207.57112"
         cy="79.230835"
         r="82.808022" /></clipPath><linearGradient
       inkscape:collect="always"
       xlink:href="#linearGradient85240"
       id="linearGradient85242"
       x1="40.941364"
       y1="11.41023"
       x2="69.389244"
       y2="11.41023"
       gradientUnits="userSpaceOnUse" /><filter
       inkscape:menu-tooltip="In and out glow with a possible offset and colorizable flood"
       inkscape:menu="Shadows and Glows"
       inkscape:label="Cutout Glow"
       style="color-interpolation-filters:sRGB"
       id="filter85338"
       x="-3.1255505"
       y="-7.9082842"
       width="4.1899791"
       height="9.0506229"><feOffset
         dy="-100"
         dx="-87.082405345211583"
         id="feOffset85328" /><feGaussianBlur
         stdDeviation="0.76369346733668331"
         result="blur"
         id="feGaussianBlur85330" /><feFlood
         flood-color="rgb(0,0,0)"
         flood-opacity="1"
         result="flood"
         id="feFlood85332" /><feComposite
         in="flood"
         in2="SourceGraphic"
         operator="in"
         result="composite"
         id="feComposite85334" /><feBlend
         in="blur"
         in2="composite"
         mode="normal"
         id="feBlend85336" /></filter><style
       type="text/css"
       id="style6175">
*{stroke-linecap:butt;stroke-linejoin:round;}
  </style><path
       d="M 0,0 V 3.5"
       id="md83504af14"
       style="stroke:#000000;stroke-width:0.8" /><path
       d="M 10.59375,35.5 H 73.1875 V 27.203125 H 10.59375 Z"
       id="DejaVuSans-8722" /><path
       d="M 37.796875,64.3125 12.890625,25.390625 h 24.90625 z m -2.59375,8.59375 h 12.40625 V 25.390625 h 10.40625 V 17.1875 H 47.609375 V 0 h -9.8125 V 17.1875 H 4.890625 v 9.515625 z"
       id="DejaVuSans-52" /><path
       d="M 19.1875,8.296875 H 53.609375 V 0 H 7.328125 v 8.296875 q 5.609375,5.8125 15.296875,15.59375 9.703125,9.796875 12.1875,12.640625 4.734375,5.3125 6.609375,9 1.890625,3.6875 1.890625,7.25 0,5.8125 -4.078125,9.46875 -4.078125,3.671875 -10.625,3.671875 -4.640625,0 -9.796875,-1.609375 -5.140625,-1.609375 -11,-4.890625 v 9.96875 Q 13.765625,71.78125 18.9375,73 q 5.1875,1.21875 9.484375,1.21875 11.328125,0 18.0625,-5.671875 6.734375,-5.65625 6.734375,-15.125 0,-4.5 -1.6875,-8.53125 Q 49.859375,40.875 45.40625,35.40625 44.1875,33.984375 37.640625,27.21875 31.109375,20.453125 19.1875,8.296875 Z"
       id="DejaVuSans-50" /><path
       d="m 31.78125,66.40625 q -7.609375,0 -11.453125,-7.5 Q 16.5,51.421875 16.5,36.375 q 0,-14.984375 3.828125,-22.484375 3.84375,-7.5 11.453125,-7.5 7.671875,0 11.5,7.5 3.84375,7.5 3.84375,22.484375 0,15.046875 -3.84375,22.53125 -3.828125,7.5 -11.5,7.5 z m 0,7.8125 q 12.265625,0 18.734375,-9.703125 6.46875,-9.6875 6.46875,-28.140625 0,-18.40625 -6.46875,-28.109375 -6.46875,-9.6875 -18.734375,-9.6875 -12.25,0 -18.71875,9.6875 Q 6.59375,17.96875 6.59375,36.375 q 0,18.453125 6.46875,28.140625 6.46875,9.703125 18.71875,9.703125 z"
       id="DejaVuSans-48" /><path
       d="M 4.203125,54.6875 H 13.1875 L 24.421875,12.015625 35.59375,54.6875 H 46.1875 L 57.421875,12.015625 68.609375,54.6875 H 77.59375 L 63.28125,0 H 52.6875 L 40.921875,44.828125 29.109375,0 H 18.5 Z"
       id="DejaVuSans-119" /><path
       d="M 0,0 H -3.5"
       id="m321196a086"
       style="stroke:#000000;stroke-width:0.8" /><path
       d="M 40.578125,39.3125 Q 47.65625,37.796875 51.625,33 q 3.984375,-4.78125 3.984375,-11.8125 0,-10.78125 -7.421875,-16.703125 -7.421875,-5.90625 -21.09375,-5.90625 -4.578125,0 -9.4375,0.90625 -4.859375,0.90625 -10.03125,2.71875 v 9.515625 q 4.09375,-2.390625 8.96875,-3.609375 4.890625,-1.21875 10.21875,-1.21875 9.265625,0 14.125,3.65625 4.859375,3.65625 4.859375,10.640625 0,6.453125 -4.515625,10.078125 -4.515625,3.640625 -12.5625,3.640625 h -8.5 v 8.109375 h 8.890625 q 7.265625,0 11.125,2.90625 3.859375,2.90625 3.859375,8.375 0,5.609375 -3.984375,8.609375 -3.96875,3.015625 -11.390625,3.015625 -4.0625,0 -8.703125,-0.890625 Q 15.375,64.15625 9.8125,62.3125 v 8.78125 q 5.625,1.5625 10.53125,2.34375 4.90625,0.78125 9.25,0.78125 11.234375,0 17.765625,-5.109375 6.546875,-5.09375 6.546875,-13.78125 0,-6.0625 -3.46875,-10.234375 -3.46875,-4.171875 -9.859375,-5.78125 z"
       id="DejaVuSans-51" /><path
       d="m 12.40625,8.296875 h 16.109375 v 55.625 L 10.984375,60.40625 v 8.984375 l 17.4375,3.515625 H 38.28125 V 8.296875 H 54.390625 V 0 H 12.40625 Z"
       id="DejaVuSans-49" /><path
       d="m 18.3125,75.984375 h 8.984375 L 12.5,0 H 3.515625 Z"
       id="DejaVuSans-Oblique-108" /><path
       d="m 25.390625,-1.421875 q -9.625,0 -15.21875,5.9375 -5.578125,5.9375 -5.578125,16.1875 0,5.953125 1.921875,12.125 1.9375,6.1875 5.015625,10.390625 Q 16.359375,49.75 22.3125,52.875 28.265625,56 35.796875,56 q 9.328125,0 15.0625,-5.8125 5.734375,-5.796875 5.734375,-15.171875 0,-6.5 -1.90625,-12.953125 Q 52.78125,15.625 49.703125,11.375 44.921875,4.828125 38.96875,1.703125 q -5.953125,-3.125 -13.578125,-3.125 z M 13.921875,21 q 0,-7.421875 3.09375,-11.109375 3.109375,-3.6875 9.40625,-3.6875 9.03125,0 14.953125,7.875 5.9375,7.890625 5.9375,20 0,7.078125 -3.171875,10.6875 -3.171875,3.625 -9.328125,3.625 -5.078125,0 -9.03125,-2.375 Q 21.828125,43.65625 18.703125,38.8125 16.40625,35.203125 15.15625,30.5625 13.921875,25.921875 13.921875,21 Z"
       id="DejaVuSans-Oblique-111" /><path
       d="M 59.625,54.6875 50.296875,6.78125 q -2.6875,-13.90625 -10.28125,-20.734375 -7.59375,-6.84375 -20.4375,-6.84375 -4.734375,0 -8.796875,0.703125 -4.046875,0.703125 -7.5625,2.171875 L 4.890625,-9.1875 q 3.3125,-2.140625 7.015625,-3.15625 3.71875,-1.03125 7.921875,-1.03125 8.546875,0 14.03125,4.671875 5.5,4.65625 7.25,13.390625 l 0.78125,4.109375 Q 38.140625,4.5 33.15625,2.25 28.171875,0 22.40625,0 14.109375,0 9.34375,5.484375 q -4.75,5.5 -4.75,15.125 0,7.5625 2.875,14.8125 2.890625,7.25 8.109375,12.875 Q 19.046875,52 23.65625,54 q 4.609375,2 9.640625,2 5.515625,0 9.609375,-2.5625 4.109375,-2.5625 6.125,-7.25 l 1.5625,8.5 z M 46.09375,34.625 q 0,6.640625 -3.125,10.25 -3.125,3.609375 -8.890625,3.609375 -3.5625,0 -6.78125,-1.421875 -3.21875,-1.40625 -5.515625,-3.953125 -3.71875,-4.1875 -5.796875,-9.875 -2.0625,-5.6875 -2.0625,-11.75 0,-6.734375 3.140625,-10.359375 3.15625,-3.609375 9.0625,-3.609375 8.546875,0 14.25,7.734375 5.71875,7.75 5.71875,19.375 z"
       id="DejaVuSans-Oblique-103" /><path
       d="M 31,75.875 Q 24.46875,64.65625 21.28125,53.65625 18.109375,42.671875 18.109375,31.390625 18.109375,20.125 21.3125,9.0625 24.515625,-2 31,-13.1875 H 23.1875 Q 15.875,-1.703125 12.234375,9.375 8.59375,20.453125 8.59375,31.390625 q 0,10.890625 3.609375,21.921875 3.625,11.046875 10.984375,22.5625 z"
       id="DejaVuSans-40" /><path
       d="m 16.890625,72.90625 h 46.09375 L 61.375,64.59375 H 25.09375 l -4.1875,-21.578125 h 34.8125 L 54.109375,34.71875 H 19.28125 L 14.203125,8.296875 H 51.3125 L 49.703125,0 H 2.6875 Z"
       id="DejaVuSans-Oblique-69" /><path
       d="M 25.390625,72.90625 H 33.6875 L 8.296875,-9.28125 H 0 Z"
       id="DejaVuSans-47" /><path
       d="m 18.796875,44.921875 q 3.90625,4.984375 12.15625,9.375 Q 34.1875,56 43.0625,56 53.03125,56 57.71875,48.09375 62.40625,40.1875 59.90625,27.296875 57.375,14.40625 49.609375,6.484375 q -7.765625,-7.90625 -17.71875,-7.90625 -6.015625,0 -9.875,2.40625 -3.84375,2.34375 -5.703125,7.21875 l -5.671875,-29 h -9.03125 l 9.28125,47.609375 q 2.203125,11.28125 7.90625,18.109375 z m 31.796875,-17.625 q 1.890625,9.90625 -1.078125,15.578125 -2.984375,5.609375 -10.109375,5.609375 -7.125,0 -12.3125,-5.609375 Q 21.921875,37.203125 20.015625,27.296875 18.0625,17.390625 21.046875,11.71875 24.03125,6.109375 31.15625,6.109375 q 7.125,0 12.296875,5.609375 5.1875,5.671875 7.140625,15.578125 z"
       id="DejaVuSans-Oblique-961" /><path
       d="M 47.796875,75.984375 46.390625,68.5 h -8.59375 q -4.890625,0 -7.109375,-1.921875 -2.21875,-1.921875 -3.296875,-7.0625 L 26.421875,54.6875 H 41.21875 L 39.890625,47.703125 H 25.09375 L 15.828125,0 H 6.78125 l 9.328125,47.703125 h -8.59375 l 1.28125,6.984375 h 8.59375 l 0.71875,3.8125 q 1.859375,9.671875 6.515625,13.578125 4.671875,3.90625 14.6875,3.90625 z"
       id="DejaVuSans-Oblique-102" /><path
       d="M 36.8125,72.90625 H 48 L 61.53125,0 H 51.21875 L 48.1875,18.703125 H 15.375 L 5.078125,0 H -5.328125 Z M 40.375,63.1875 19.921875,26.90625 H 46.6875 Z"
       id="DejaVuSans-Oblique-65" /><path
       d="m 8.015625,75.875 h 7.8125 q 7.3125,-11.515625 10.953125,-22.5625 3.640625,-11.03125 3.640625,-21.921875 0,-10.9375 -3.640625,-22.015625 -3.640625,-11.078125 -10.953125,-22.5625 h -7.8125 Q 14.5,-2 17.703125,9.0625 20.90625,20.125 20.90625,31.390625 q 0,11.28125 -3.203125,22.265625 -3.203125,11 -9.6875,22.21875 z"
       id="DejaVuSans-41" /><path
       d="M 0,-5 -5,5 H 5 Z"
       id="mbc98e26198"
       style="stroke:#1f77b4;stroke-linejoin:miter" /><path
       d="M 0,5 C 1.326016,5 2.597899,4.473168 3.535534,3.535534 4.473168,2.597899 5,1.326016 5,0 5,-1.326016 4.473168,-2.597899 3.535534,-3.535534 2.597899,-4.473168 1.326016,-5 0,-5 -1.326016,-5 -2.597899,-4.473168 -3.535534,-3.535534 -4.473168,-2.597899 -5,-1.326016 -5,0 -5,1.326016 -4.473168,2.597899 -3.535534,3.535534 -2.597899,4.473168 -1.326016,5 0,5 Z"
       id="mbff3645474"
       style="stroke:#ff7f0e" /><path
       d="M 0,5 5,-5 H -5 Z"
       id="m7c046e676f"
       style="stroke:#2ca02c;stroke-linejoin:miter" /><path
       d="M 9.8125,72.90625 H 23.09375 L 55.421875,11.921875 V 72.90625 h 9.5625 V 0 h -13.28125 l -32.3125,60.984375 V 0 H 9.8125 Z"
       id="DejaVuSans-78" /><path
       d="m 30.609375,48.390625 q -7.21875,0 -11.421875,-5.640625 -4.203125,-5.640625 -4.203125,-15.453125 0,-9.8125 4.171875,-15.453125 4.1875,-5.640625 11.453125,-5.640625 7.1875,0 11.375,5.65625 4.203125,5.671875 4.203125,15.4375 0,9.71875 -4.203125,15.40625 -4.1875,5.6875 -11.375,5.6875 z m 0,7.609375 q 11.71875,0 18.40625,-7.625 6.703125,-7.609375 6.703125,-21.078125 0,-13.421875 -6.703125,-21.078125 -6.6875,-7.640625 -18.40625,-7.640625 -11.765625,0 -18.4375,7.640625 -6.65625,7.65625 -6.65625,21.078125 0,13.46875 6.65625,21.078125 Q 18.84375,56 30.609375,56 Z"
       id="DejaVuSans-111" /><path
       d="M 54.890625,33.015625 V 0 H 45.90625 v 32.71875 q 0,7.765625 -3.03125,11.609375 -3.03125,3.859375 -9.078125,3.859375 -7.28125,0 -11.484375,-4.640625 -4.203125,-4.625 -4.203125,-12.640625 V 0 h -9.03125 v 54.6875 h 9.03125 v -8.5 q 3.234375,4.9375 7.59375,7.375 4.375,2.4375 10.09375,2.4375 9.421875,0 14.25,-5.828125 4.84375,-5.828125 4.84375,-17.15625 z"
       id="DejaVuSans-110" /><path
       d="m 4.890625,31.390625 h 26.3125 v -8 h -26.3125 z"
       id="DejaVuSans-45" /><path
       d="M 34.1875,63.1875 20.796875,26.90625 h 26.8125 z m -5.578125,9.71875 h 11.1875 L 67.578125,0 h -10.25 L 50.6875,18.703125 H 17.828125 L 11.1875,0 H 0.78125 Z"
       id="DejaVuSans-65" /><path
       d="M 37.109375,75.984375 V 68.5 h -8.59375 q -4.828125,0 -6.71875,-1.953125 -1.875,-1.953125 -1.875,-7.03125 V 54.6875 H 34.71875 V 47.703125 H 19.921875 V 0 h -9.03125 V 47.703125 H 2.296875 V 54.6875 h 8.59375 V 58.5 q 0,9.125 4.25,13.296875 4.25,4.1875 13.46875,4.1875 z"
       id="DejaVuSans-102" /><path
       d="M 9.421875,54.6875 H 18.40625 V 0 H 9.421875 Z m 0,21.296875 H 18.40625 V 64.59375 H 9.421875 Z"
       id="DejaVuSans-105" /><path
       d="m 56.203125,29.59375 v -4.390625 h -41.3125 q 0.59375,-9.28125 5.59375,-14.140625 5,-4.859375 13.9375,-4.859375 5.171875,0 10.03125,1.265625 4.859375,1.265625 9.65625,3.8125 v -8.5 q -4.84375,-2.046875 -9.921875,-3.125 -5.078125,-1.078125 -10.296875,-1.078125 -13.09375,0 -20.734375,7.609375 -7.640625,7.625 -7.640625,20.625 0,13.421875 7.25,21.296875 Q 20.015625,56 32.328125,56 q 11.03125,0 17.453125,-7.109375 6.421875,-7.09375 6.421875,-19.296875 z m -8.984375,2.640625 q -0.09375,7.359375 -4.125,11.75 -4.03125,4.40625 -10.671875,4.40625 -7.515625,0 -12.03125,-4.25 -4.515625,-4.25 -5.203125,-11.96875 z"
       id="DejaVuSans-101" /><path
       d="M -0.296875,72.90625 H 61.375 v -8.3125 H 35.5 V 0 H 25.59375 V 64.59375 H -0.296875 Z"
       id="DejaVuSans-84" /><path
       d="m 41.109375,46.296875 q -1.515625,0.875 -3.296875,1.28125 Q 36.03125,48 33.890625,48 26.265625,48 22.1875,43.046875 18.109375,38.09375 18.109375,28.8125 V 0 h -9.03125 v 54.6875 h 9.03125 v -8.5 q 2.84375,4.984375 7.375,7.390625 Q 30.03125,56 36.53125,56 q 0.921875,0 2.046875,-0.125 1.125,-0.109375 2.484375,-0.359375 z"
       id="DejaVuSans-114" /><path
       d="m 34.28125,27.484375 q -10.890625,0 -15.09375,-2.484375 -4.203125,-2.484375 -4.203125,-8.5 0,-4.78125 3.15625,-7.59375 3.15625,-2.796875 8.5625,-2.796875 7.484375,0 12,5.296875 4.515625,5.296875 4.515625,14.078125 v 2 z m 17.921875,3.71875 V 0 H 43.21875 v 8.296875 q -3.078125,-4.96875 -7.671875,-7.34375 -4.59375,-2.375 -11.234375,-2.375 -8.390625,0 -13.359375,4.71875 Q 6,8.015625 6,15.921875 q 0,9.21875 6.171875,13.90625 6.1875,4.6875 18.4375,4.6875 H 43.21875 v 0.890625 q 0,6.203125 -4.078125,9.59375 -4.078125,3.390625 -11.453125,3.390625 -4.6875,0 -9.140625,-1.125 -4.4375,-1.125 -8.53125,-3.375 v 8.3125 q 4.921875,1.90625 9.5625,2.84375 Q 24.21875,56 28.609375,56 q 11.875,0 17.734375,-6.15625 5.859375,-6.140625 5.859375,-18.640625 z"
       id="DejaVuSans-97" /><path
       d="m 44.28125,53.078125 v -8.5 Q 40.484375,46.53125 36.375,47.5 q -4.09375,0.984375 -8.5,0.984375 -6.6875,0 -10.03125,-2.046875 Q 14.5,44.390625 14.5,40.28125 q 0,-3.125 2.390625,-4.90625 2.390625,-1.78125 9.625,-3.390625 l 3.078125,-0.6875 Q 39.15625,29.25 43.1875,25.515625 47.21875,21.78125 47.21875,15.09375 q 0,-7.625 -6.03125,-12.078125 -6.03125,-4.4375 -16.578125,-4.4375 -4.390625,0 -9.15625,0.859375 Q 10.6875,0.296875 5.421875,2 v 9.28125 q 4.984375,-2.59375 9.8125,-3.890625 4.828125,-1.28125 9.578125,-1.28125 6.34375,0 9.75,2.171875 3.421875,2.171875 3.421875,6.125 0,3.65625 -2.46875,5.609375 -2.453125,1.953125 -10.8125,3.765625 l -3.125,0.734375 q -8.34375,1.75 -12.0625,5.390625 -3.703125,3.640625 -3.703125,9.984375 0,7.71875 5.46875,11.90625 Q 16.75,56 26.8125,56 q 4.96875,0 9.359375,-0.734375 4.40625,-0.71875 8.109375,-2.1875 z"
       id="DejaVuSans-115" /><path
       d="M 18.3125,70.21875 V 54.6875 h 18.5 v -6.984375 h -18.5 v -29.6875 q 0,-6.6875 1.828125,-8.59375 1.828125,-1.90625 7.453125,-1.90625 H 36.8125 V 0 H 27.59375 Q 17.1875,0 13.234375,3.875 9.28125,7.765625 9.28125,18.015625 v 29.6875 H 2.6875 V 54.6875 h 6.59375 v 15.53125 z"
       id="DejaVuSans-116" /><path
       d="M 28.609375,0 0.78125,72.90625 h 10.296875 l 23.109375,-61.375 23.140625,61.375 h 10.25 L 39.796875,0 Z"
       id="DejaVuSans-86" /><path
       d="m 45.40625,27.984375 q 0,9.765625 -4.03125,15.125 -4.015625,5.375 -11.296875,5.375 -7.21875,0 -11.25,-5.375 -4.03125,-5.359375 -4.03125,-15.125 0,-9.71875 4.03125,-15.09375 4.03125,-5.375 11.25,-5.375 7.28125,0 11.296875,5.375 4.03125,5.375 4.03125,15.09375 z M 54.390625,6.78125 q 0,-13.953125 -6.203125,-20.765625 -6.1875,-6.8125 -18.984375,-6.8125 -4.734375,0 -8.9375,0.703125 -4.203125,0.703125 -8.15625,2.171875 V -9.1875 q 3.953125,-2.140625 7.8125,-3.15625 3.859375,-1.03125 7.859375,-1.03125 8.84375,0 13.234375,4.609375 4.390625,4.609375 4.390625,13.9375 V 9.625 Q 42.625,4.78125 38.28125,2.390625 33.9375,0 27.875,0 17.828125,0 11.671875,7.65625 q -6.15625,7.671875 -6.15625,20.328125 0,12.6875 6.15625,20.34375 Q 17.828125,56 27.875,56 q 6.0625,0 10.40625,-2.390625 4.34375,-2.390625 7.125,-7.21875 V 54.6875 h 8.984375 z"
       id="DejaVuSans-103" /><path
       id="DejaVuSans-32"
       d="" /><path
       d="M 19.671875,34.8125 V 8.109375 H 35.5 q 7.953125,0 11.78125,3.296875 3.84375,3.296875 3.84375,10.078125 0,6.84375 -3.84375,10.078125 -3.828125,3.25 -11.78125,3.25 z m 0,29.984375 V 42.828125 H 34.28125 q 7.21875,0 10.75,2.703125 3.546875,2.71875 3.546875,8.28125 0,5.515625 -3.546875,8.25 -3.53125,2.734375 -10.75,2.734375 z M 9.8125,72.90625 h 25.203125 q 11.28125,0 17.375,-4.6875 Q 58.5,63.53125 58.5,54.890625 58.5,48.1875 55.375,44.234375 52.25,40.28125 46.1875,39.3125 53.46875,37.75 57.5,32.78125 q 4.03125,-4.953125 4.03125,-12.375 0,-9.765625 -6.640625,-15.09375 Q 48.25,0 35.984375,0 H 9.8125 Z"
       id="DejaVuSans-66" /><path
       d="M 8.5,21.578125 V 54.6875 h 8.984375 V 21.921875 q 0,-7.765625 3.015625,-11.65625 3.03125,-3.875 9.09375,-3.875 7.265625,0 11.484375,4.640625 4.234375,4.640625 4.234375,12.65625 v 31 h 8.984375 V 0 H 45.3125 V 8.40625 Q 42.046875,3.421875 37.71875,1 33.40625,-1.421875 27.6875,-1.421875 18.265625,-1.421875 13.375,4.4375 8.5,10.296875 8.5,21.578125 Z M 31.109375,56 Z"
       id="DejaVuSans-117" /><path
       d="m 45.40625,46.390625 v 29.59375 h 8.984375 V 0 H 45.40625 v 8.203125 q -2.828125,-4.875 -7.15625,-7.25 -4.3125,-2.375 -10.375,-2.375 -9.90625,0 -16.140625,7.90625 -6.21875,7.921875 -6.21875,20.8125 0,12.890625 6.21875,20.796875 Q 17.96875,56 27.875,56 q 6.0625,0 10.375,-2.375 4.328125,-2.359375 7.15625,-7.234375 z M 14.796875,27.296875 q 0,-9.90625 4.078125,-15.546875 4.078125,-5.640625 11.203125,-5.640625 7.125,0 11.21875,5.640625 4.109375,5.640625 4.109375,15.546875 0,9.90625 -4.109375,15.546875 -4.09375,5.640625 -11.21875,5.640625 -7.125,0 -11.203125,-5.640625 -4.078125,-5.640625 -4.078125,-15.546875 z"
       id="DejaVuSans-100" /><path
       d="M 59.515625,10.40625 V 29.984375 H 43.40625 v 8.109375 h 25.875 V 6.78125 Q 63.578125,2.734375 56.6875,0.65625 49.8125,-1.421875 42,-1.421875 q -17.09375,0 -26.75,9.984375 -9.640625,10 -9.640625,27.8125 0,17.875 9.640625,27.859375 9.65625,9.984375 26.75,9.984375 7.125,0 13.546875,-1.765625 6.421875,-1.75 11.84375,-5.171875 v -10.5 q -5.46875,4.640625 -11.625,6.984375 -6.15625,2.34375 -12.9375,2.34375 -13.390625,0 -20.109375,-7.46875 -6.703125,-7.46875 -6.703125,-22.265625 0,-14.75 6.703125,-22.21875 6.71875,-7.46875 20.109375,-7.46875 5.21875,0 9.3125,0.90625 4.109375,0.90625 7.375,2.8125 z"
       id="DejaVuSans-71" /><path
       d="M 64.40625,67.28125 V 56.890625 q -4.984375,4.640625 -10.625,6.921875 -5.640625,2.296875 -11.984375,2.296875 -12.5,0 -19.140625,-7.640625 -6.640625,-7.640625 -6.640625,-22.09375 0,-14.40625 6.640625,-22.046875 Q 29.296875,6.6875 41.796875,6.6875 q 6.34375,0 11.984375,2.296875 5.640625,2.296875 10.625,6.9375 V 5.609375 Q 59.234375,2.09375 53.4375,0.328125 q -5.78125,-1.75 -12.21875,-1.75 -16.5625,0 -26.09375,10.125 Q 5.609375,18.84375 5.609375,36.375 q 0,17.578125 9.515625,27.703125 9.53125,10.140625 26.09375,10.140625 6.53125,0 12.3125,-1.734375 5.796875,-1.734375 10.875,-5.203125 z"
       id="DejaVuSans-67" /><path
       d="m 44.390625,34.1875 q 3.171875,-1.078125 6.171875,-4.59375 3,-3.515625 6.03125,-9.671875 L 66.609375,0 H 56 l -9.3125,18.703125 q -3.625,7.328125 -7.015625,9.71875 -3.390625,2.390625 -9.25,2.390625 h -10.75 V 0 H 9.8125 v 72.90625 h 22.265625 q 12.5,0 18.65625,-5.234375 6.15625,-5.21875 6.15625,-15.765625 0,-6.890625 -3.203125,-11.4375 -3.203125,-4.53125 -9.296875,-6.28125 z m -24.71875,30.609375 v -25.875 h 12.40625 q 7.125,0 10.765625,3.296875 3.640625,3.296875 3.640625,9.6875 0,6.390625 -3.640625,9.640625 -3.640625,3.25 -10.765625,3.25 z"
       id="DejaVuSans-82" /><path
       d="m 9.8125,72.90625 h 46.09375 v -8.3125 H 19.671875 V 43.015625 h 34.71875 V 34.71875 H 19.671875 V 8.296875 H 56.78125 V 0 H 9.8125 Z"
       id="DejaVuSans-69" /><path
       d="M 11.71875,12.40625 H 22.015625 V 4 l -8,-15.625 H 7.71875 l 4,15.625 z"
       id="DejaVuSans-44" /><path
       d="m 18.109375,8.203125 v -29 H 9.078125 V 54.6875 h 9.03125 v -8.296875 q 2.84375,4.875 7.15625,7.234375 Q 29.59375,56 35.59375,56 q 9.96875,0 16.1875,-7.90625 6.234375,-7.90625 6.234375,-20.796875 0,-12.890625 -6.234375,-20.8125 -6.21875,-7.90625 -16.1875,-7.90625 -6,0 -10.328125,2.375 -4.3125,2.375 -7.15625,7.25 z M 48.6875,27.296875 q 0,9.90625 -4.078125,15.546875 -4.078125,5.640625 -11.203125,5.640625 -7.140625,0 -11.21875,-5.640625 -4.078125,-5.640625 -4.078125,-15.546875 0,-9.90625 4.078125,-15.546875 4.078125,-5.640625 11.21875,-5.640625 7.125,0 11.203125,5.640625 4.078125,5.640625 4.078125,15.546875 z"
       id="DejaVuSans-112" /><path
       d="M 10.59375,45.40625 H 73.1875 V 37.203125 H 10.59375 Z m 0,-19.921875 H 73.1875 V 17.1875 H 10.59375 Z"
       id="DejaVuSans-61" /><clipPath
       id="p6ee1837738"><rect
         height="261.48001"
         width="389.10501"
         x="71.972816"
         y="7.1999998"
         id="rect6793" /></clipPath></defs><g
     inkscape:label="Layer 1"
     inkscape:groupmode="layer"
     id="layer1"
     transform="translate(-202.95901,-99.320023)"
     style="display:inline"><g
       id="g1192"
       inkscape:label="Funnel"
       transform="matrix(1.1828923,0,0,1.1828923,2.2871432,-21.006585)"
       style="display:inline"><text
         xml:space="preserve"
         style="font-style:normal;font-weight:normal;font-size:40px;line-height:1.25;font-family:sans-serif;fill:#000000;fill-opacity:1;stroke:none"
         x="327.41171"
         y="37.432686"
         id="text1196"
         transform="matrix(0.57939529,0.61561168,-0.61561168,0.57939529,26.252867,15.813019)"><tspan
           sodipodi:role="line"
           id="tspan1194"
           x="327.41171"
           y="37.432686">Supercomputers</tspan></text><text
         xml:space="preserve"
         style="font-style:normal;font-weight:normal;font-size:40px;line-height:1.25;font-family:sans-serif;fill:#000000;fill-opacity:1;stroke:none"
         x="63.597126"
         y="800.75281"
         id="text1200"
         transform="matrix(0.58440767,-0.6108554,0.6108554,0.58440767,26.252867,15.813019)"><tspan
           sodipodi:role="line"
           id="tspan1198"
           x="63.597126"
           y="800.75281">Novel Hardware </tspan></text><text
         xml:space="preserve"
         style="font-style:normal;font-weight:normal;font-size:32px;line-height:1.25;font-family:sans-serif;fill:#000000;fill-opacity:1;stroke:none"
         x="529.02539"
         y="276.08023"
         id="text1128"
         transform="matrix(0.8453855,0,0,0.8453855,26.252867,15.813019)"><tspan
           sodipodi:role="line"
           id="tspan1126"
           x="529.02539"
           y="276.08023"
           style="font-size:32px;text-align:center;text-anchor:middle">Novel Algorithms</tspan><tspan
           sodipodi:role="line"
           x="529.02539"
           y="316.08023"
           id="tspan1132"
           style="font-size:32px;text-align:center;text-anchor:middle">Software Design</tspan><tspan
           sodipodi:role="line"
           x="529.02539"
           y="356.08023"
           id="tspan1136"
           style="font-size:32px;text-align:center;text-anchor:middle">Mechanics</tspan></text><path
         style="fill:none;stroke:#000000;stroke-width:7.55906;stroke-linecap:butt;stroke-linejoin:miter;stroke-dasharray:none;stroke-opacity:1"
         d="M 172.56262,164.78087 424.07026,435.07932"
         id="path122"
         inkscape:label="path122" /><path
         style="fill:none;stroke:#000000;stroke-width:7.55906;stroke-linecap:butt;stroke-linejoin:miter;stroke-dasharray:none;stroke-opacity:1"
         d="M 503.56554,435.07932 772.75919,164.78087"
         id="path394" /><ellipse
         style="fill:#f2f2f2;fill-rule:evenodd;stroke:#000000;stroke-width:1.10296;stroke-opacity:1"
         id="path382"
         cx="472.66092"
         cy="160.99153"
         rx="302.46436"
         ry="58.717682" /><ellipse
         style="fill:#f2f2f2;fill-rule:evenodd;stroke:#000000;stroke-opacity:1"
         id="path392"
         cx="463.8179"
         cy="435.07932"
         rx="41.747643"
         ry="19.852083" /></g><g
       id="g1463"
       transform="matrix(1.0714087,0,0,1.0714087,-14.089415,-0.74451429)"><text
         xml:space="preserve"
         style="font-style:normal;font-weight:normal;font-size:30.1114px;line-height:1.25;font-family:sans-serif;fill:#000000;fill-opacity:1;stroke:none;stroke-width:1.12918"
         x="546.32507"
         y="581.67627"
         id="text1237"><tspan
           sodipodi:role="line"
           id="tspan1235"
           x="546.32507"
           y="581.67627"
           style="font-size:30.1114px;text-align:center;text-anchor:middle;stroke-width:1.12918">Multiscale</tspan><tspan
           sodipodi:role="line"
           x="546.32507"
           y="619.31549"
           id="tspan1239"
           style="font-size:30.1114px;text-align:center;text-anchor:middle;stroke-width:1.12918">Multiphysics</tspan><tspan
           sodipodi:role="line"
           x="546.32507"
           y="656.95477"
           id="tspan1241"
           style="font-size:30.1114px;text-align:center;text-anchor:middle;stroke-width:1.12918">Parallel Control</tspan><tspan
           sodipodi:role="line"
           x="546.32507"
           y="694.59399"
           id="tspan1243"
           style="font-size:30.1114px;text-align:center;text-anchor:middle;stroke-width:1.12918">Coupling Technology</tspan><tspan
           sodipodi:role="line"
           x="546.32507"
           y="732.23328"
           style="font-size:30.1114px;text-align:center;text-anchor:middle;stroke-width:1.12918"
           id="tspan3623">Model Definition</tspan></text><rect
         style="fill:none;stroke:#000000;stroke-width:8.1323;stroke-dasharray:none;stroke-opacity:1"
         id="rect1297"
         width="421.67422"
         height="252.53409"
         x="326.2908"
         y="487.97507" /><text
         xml:space="preserve"
         style="font-style:normal;font-weight:normal;font-size:37.334px;line-height:1.25;font-family:sans-serif;fill:#000000;fill-opacity:1;stroke:none;stroke-width:0.933351"
         x="325.6658"
         y="532.65955"
         id="text3627"><tspan
           sodipodi:role="line"
           id="tspan3625"
           style="stroke-width:0.933351"
           x="325.6658"
           y="532.65955">Simulation Technology</tspan><tspan
           sodipodi:role="line"
           style="stroke-width:0.933351"
           x="325.6658"
           y="579.32703"
           id="tspan3475" /></text></g><text
       xml:space="preserve"
       style="font-style:normal;font-weight:normal;font-size:40px;line-height:1.25;font-family:sans-serif;fill:#000000;fill-opacity:1;stroke:none"
       x="33.017429"
       y="515.65021"
       id="text1467"><tspan
         sodipodi:role="line"
         id="tspan1465"
         x="33.017429"
         y="515.65021" /></text><text
       xml:space="preserve"
       style="font-style:normal;font-weight:normal;font-size:40px;line-height:1.25;font-family:sans-serif;fill:#000000;fill-opacity:1;stroke:none"
       x="-383.00385"
       y="678.3219"
       id="text3131"><tspan
         sodipodi:role="line"
         id="tspan3129"
         x="-383.00385"
         y="678.3219" /></text></g></svg>
